<svg width="1363" height="163" viewBox="0 0 1363 163" fill="none" xmlns="http://www.w3.org/2000/svg">
<path d="M0 15C0 6.71573 6.71573 0 15 0H37V163H15C6.71573 163 0 156.284 0 148V15Z" fill="#424242"/>
<rect width="1097" height="163" transform="translate(37)" fill="#F0F0F0"/>
<path d="M101.906 53.9219L94.3945 51.2383V48.0859L104.602 52.375V54.6367L101.906 53.9219ZM94.3945 56.1719L101.918 53.4297L104.602 52.7852V55.0352L94.3945 59.3242V56.1719ZM121.781 56.5352C121.781 56.2305 121.734 55.957 121.641 55.7148C121.555 55.4648 121.391 55.2383 121.148 55.0352C120.906 54.8242 120.566 54.6172 120.129 54.4141C119.691 54.2109 119.125 54 118.43 53.7812C117.656 53.5312 116.922 53.25 116.227 52.9375C115.539 52.625 114.93 52.2617 114.398 51.8477C113.875 51.4258 113.461 50.9375 113.156 50.3828C112.859 49.8281 112.711 49.1836 112.711 48.4492C112.711 47.7383 112.867 47.0938 113.18 46.5156C113.492 45.9297 113.93 45.4297 114.492 45.0156C115.055 44.5938 115.719 44.2695 116.484 44.043C117.258 43.8164 118.105 43.7031 119.027 43.7031C120.285 43.7031 121.383 43.9297 122.32 44.3828C123.258 44.8359 123.984 45.457 124.5 46.2461C125.023 47.0352 125.285 47.9375 125.285 48.9531H121.793C121.793 48.4531 121.688 48.0156 121.477 47.6406C121.273 47.2578 120.961 46.957 120.539 46.7383C120.125 46.5195 119.602 46.4102 118.969 46.4102C118.359 46.4102 117.852 46.5039 117.445 46.6914C117.039 46.8711 116.734 47.1172 116.531 47.4297C116.328 47.7344 116.227 48.0781 116.227 48.4609C116.227 48.75 116.297 49.0117 116.438 49.2461C116.586 49.4805 116.805 49.6992 117.094 49.9023C117.383 50.1055 117.738 50.2969 118.16 50.4766C118.582 50.6562 119.07 50.832 119.625 51.0039C120.555 51.2852 121.371 51.6016 122.074 51.9531C122.785 52.3047 123.379 52.6992 123.855 53.1367C124.332 53.5742 124.691 54.0703 124.934 54.625C125.176 55.1797 125.297 55.8086 125.297 56.5117C125.297 57.2539 125.152 57.918 124.863 58.5039C124.574 59.0898 124.156 59.5859 123.609 59.9922C123.062 60.3984 122.41 60.707 121.652 60.918C120.895 61.1289 120.047 61.2344 119.109 61.2344C118.266 61.2344 117.434 61.125 116.613 60.9062C115.793 60.6797 115.047 60.3398 114.375 59.8867C113.711 59.4336 113.18 58.8555 112.781 58.1523C112.383 57.4492 112.184 56.6172 112.184 55.6562H115.711C115.711 56.1875 115.793 56.6367 115.957 57.0039C116.121 57.3711 116.352 57.668 116.648 57.8945C116.953 58.1211 117.312 58.2852 117.727 58.3867C118.148 58.4883 118.609 58.5391 119.109 58.5391C119.719 58.5391 120.219 58.4531 120.609 58.2812C121.008 58.1094 121.301 57.8711 121.488 57.5664C121.684 57.2617 121.781 56.918 121.781 56.5352ZM130.852 50.9453V61H127.465V48.3203H130.641L130.852 50.9453ZM130.383 54.2148H129.445C129.445 53.332 129.551 52.5195 129.762 51.7773C129.98 51.0273 130.297 50.3789 130.711 49.832C131.133 49.2773 131.652 48.8477 132.27 48.543C132.887 48.2383 133.602 48.0859 134.414 48.0859C134.977 48.0859 135.492 48.1719 135.961 48.3438C136.43 48.5078 136.832 48.7695 137.168 49.1289C137.512 49.4805 137.777 49.9414 137.965 50.5117C138.152 51.0742 138.246 51.75 138.246 52.5391V61H134.871V52.9141C134.871 52.3359 134.793 51.8906 134.637 51.5781C134.48 51.2656 134.258 51.0469 133.969 50.9219C133.688 50.7969 133.348 50.7344 132.949 50.7344C132.512 50.7344 132.129 50.8242 131.801 51.0039C131.48 51.1836 131.215 51.4336 131.004 51.7539C130.793 52.0664 130.637 52.4336 130.535 52.8555C130.434 53.2773 130.383 53.7305 130.383 54.2148ZM137.93 53.8281L136.723 53.9805C136.723 53.1523 136.824 52.3828 137.027 51.6719C137.238 50.9609 137.547 50.3359 137.953 49.7969C138.367 49.2578 138.879 48.8398 139.488 48.543C140.098 48.2383 140.801 48.0859 141.598 48.0859C142.207 48.0859 142.762 48.1758 143.262 48.3555C143.762 48.5273 144.188 48.8047 144.539 49.1875C144.898 49.5625 145.172 50.0547 145.359 50.6641C145.555 51.2734 145.652 52.0195 145.652 52.9023V61H142.266V52.9023C142.266 52.3164 142.188 51.8711 142.031 51.5664C141.883 51.2539 141.664 51.0391 141.375 50.9219C141.094 50.7969 140.758 50.7344 140.367 50.7344C139.961 50.7344 139.605 50.8164 139.301 50.9805C138.996 51.1367 138.742 51.3555 138.539 51.6367C138.336 51.918 138.184 52.2461 138.082 52.6211C137.98 52.9883 137.93 53.3906 137.93 53.8281ZM155.109 58.1406V52.4922C155.109 52.0859 155.043 51.7383 154.91 51.4492C154.777 51.1523 154.57 50.9219 154.289 50.7578C154.016 50.5938 153.66 50.5117 153.223 50.5117C152.848 50.5117 152.523 50.5781 152.25 50.7109C151.977 50.8359 151.766 51.0195 151.617 51.2617C151.469 51.4961 151.395 51.7734 151.395 52.0938H148.02C148.02 51.5547 148.145 51.043 148.395 50.5586C148.645 50.0742 149.008 49.6484 149.484 49.2812C149.961 48.9062 150.527 48.6133 151.184 48.4023C151.848 48.1914 152.59 48.0859 153.41 48.0859C154.395 48.0859 155.27 48.25 156.035 48.5781C156.801 48.9062 157.402 49.3984 157.84 50.0547C158.285 50.7109 158.508 51.5312 158.508 52.5156V57.9414C158.508 58.6367 158.551 59.207 158.637 59.6523C158.723 60.0898 158.848 60.4727 159.012 60.8008V61H155.602C155.438 60.6562 155.312 60.2266 155.227 59.7109C155.148 59.1875 155.109 58.6641 155.109 58.1406ZM155.555 53.2773L155.578 55.1875H153.691C153.246 55.1875 152.859 55.2383 152.531 55.3398C152.203 55.4414 151.934 55.5859 151.723 55.7734C151.512 55.9531 151.355 56.1641 151.254 56.4062C151.16 56.6484 151.113 56.9141 151.113 57.2031C151.113 57.4922 151.18 57.7539 151.312 57.9883C151.445 58.2148 151.637 58.3945 151.887 58.5273C152.137 58.6523 152.43 58.7148 152.766 58.7148C153.273 58.7148 153.715 58.6133 154.09 58.4102C154.465 58.207 154.754 57.957 154.957 57.6602C155.168 57.3633 155.277 57.082 155.285 56.8164L156.176 58.2461C156.051 58.5664 155.879 58.8984 155.66 59.2422C155.449 59.5859 155.18 59.9102 154.852 60.2148C154.523 60.5117 154.129 60.7578 153.668 60.9531C153.207 61.1406 152.66 61.2344 152.027 61.2344C151.223 61.2344 150.492 61.0742 149.836 60.7539C149.188 60.4258 148.672 59.9766 148.289 59.4062C147.914 58.8281 147.727 58.1719 147.727 57.4375C147.727 56.7734 147.852 56.1836 148.102 55.668C148.352 55.1523 148.719 54.7188 149.203 54.3672C149.695 54.0078 150.309 53.7383 151.043 53.5586C151.777 53.3711 152.629 53.2773 153.598 53.2773H155.555ZM164.484 51.0859V61H161.109V48.3203H164.285L164.484 51.0859ZM168.305 48.2383L168.246 51.3672C168.082 51.3438 167.883 51.3242 167.648 51.3086C167.422 51.2852 167.215 51.2734 167.027 51.2734C166.551 51.2734 166.137 51.3359 165.785 51.4609C165.441 51.5781 165.152 51.7539 164.918 51.9883C164.691 52.2227 164.52 52.5078 164.402 52.8438C164.293 53.1797 164.23 53.5625 164.215 53.9922L163.535 53.7812C163.535 52.9609 163.617 52.207 163.781 51.5195C163.945 50.8242 164.184 50.2188 164.496 49.7031C164.816 49.1875 165.207 48.7891 165.668 48.5078C166.129 48.2266 166.656 48.0859 167.25 48.0859C167.438 48.0859 167.629 48.1016 167.824 48.1328C168.02 48.1562 168.18 48.1914 168.305 48.2383ZM176.695 48.3203V50.7109H169.312V48.3203H176.695ZM171.141 45.1914H174.516V57.1797C174.516 57.5469 174.562 57.8281 174.656 58.0234C174.758 58.2188 174.906 58.3555 175.102 58.4336C175.297 58.5039 175.543 58.5391 175.84 58.5391C176.051 58.5391 176.238 58.5312 176.402 58.5156C176.574 58.4922 176.719 58.4688 176.836 58.4453L176.848 60.9297C176.559 61.0234 176.246 61.0977 175.91 61.1523C175.574 61.207 175.203 61.2344 174.797 61.2344C174.055 61.2344 173.406 61.1133 172.852 60.8711C172.305 60.6211 171.883 60.2227 171.586 59.6758C171.289 59.1289 171.141 58.4102 171.141 57.5195V45.1914ZM194.695 55.3398H198.199C198.129 56.4883 197.812 57.5078 197.25 58.3984C196.695 59.2891 195.918 59.9844 194.918 60.4844C193.926 60.9844 192.73 61.2344 191.332 61.2344C190.238 61.2344 189.258 61.0469 188.391 60.6719C187.523 60.2891 186.781 59.7422 186.164 59.0312C185.555 58.3203 185.09 57.4609 184.77 56.4531C184.449 55.4453 184.289 54.3164 184.289 53.0664V51.8828C184.289 50.6328 184.453 49.5039 184.781 48.4961C185.117 47.4805 185.594 46.6172 186.211 45.9062C186.836 45.1953 187.582 44.6484 188.449 44.2656C189.316 43.8828 190.285 43.6914 191.355 43.6914C192.777 43.6914 193.977 43.9492 194.953 44.4648C195.938 44.9805 196.699 45.6914 197.238 46.5977C197.785 47.5039 198.113 48.5352 198.223 49.6914H194.707C194.668 49.0039 194.531 48.4219 194.297 47.9453C194.062 47.4609 193.707 47.0977 193.23 46.8555C192.762 46.6055 192.137 46.4805 191.355 46.4805C190.77 46.4805 190.258 46.5898 189.82 46.8086C189.383 47.0273 189.016 47.3594 188.719 47.8047C188.422 48.25 188.199 48.8125 188.051 49.4922C187.91 50.1641 187.84 50.9531 187.84 51.8594V53.0664C187.84 53.9492 187.906 54.7266 188.039 55.3984C188.172 56.0625 188.375 56.625 188.648 57.0859C188.93 57.5391 189.289 57.8828 189.727 58.1172C190.172 58.3438 190.707 58.457 191.332 58.457C192.066 58.457 192.672 58.3398 193.148 58.1055C193.625 57.8711 193.988 57.5234 194.238 57.0625C194.496 56.6016 194.648 56.0273 194.695 55.3398ZM203.859 43V61H200.473V43H203.859ZM210.211 48.3203V61H206.824V48.3203H210.211ZM206.613 45.0156C206.613 44.5234 206.785 44.1172 207.129 43.7969C207.473 43.4766 207.934 43.3164 208.512 43.3164C209.082 43.3164 209.539 43.4766 209.883 43.7969C210.234 44.1172 210.41 44.5234 210.41 45.0156C210.41 45.5078 210.234 45.9141 209.883 46.2344C209.539 46.5547 209.082 46.7148 208.512 46.7148C207.934 46.7148 207.473 46.5547 207.129 46.2344C206.785 45.9141 206.613 45.5078 206.613 45.0156ZM216.305 51.0273V61H212.93V48.3203H216.094L216.305 51.0273ZM215.812 54.2148H214.898C214.898 53.2773 215.02 52.4336 215.262 51.6836C215.504 50.9258 215.844 50.2812 216.281 49.75C216.719 49.2109 217.238 48.8008 217.84 48.5195C218.449 48.2305 219.129 48.0859 219.879 48.0859C220.473 48.0859 221.016 48.1719 221.508 48.3438C222 48.5156 222.422 48.7891 222.773 49.1641C223.133 49.5391 223.406 50.0352 223.594 50.6523C223.789 51.2695 223.887 52.0234 223.887 52.9141V61H220.488V52.9023C220.488 52.3398 220.41 51.9023 220.254 51.5898C220.098 51.2773 219.867 51.0586 219.562 50.9336C219.266 50.8008 218.898 50.7344 218.461 50.7344C218.008 50.7344 217.613 50.8242 217.277 51.0039C216.949 51.1836 216.676 51.4336 216.457 51.7539C216.246 52.0664 216.086 52.4336 215.977 52.8555C215.867 53.2773 215.812 53.7305 215.812 54.2148ZM230.016 48.3203V61H226.629V48.3203H230.016ZM226.418 45.0156C226.418 44.5234 226.59 44.1172 226.934 43.7969C227.277 43.4766 227.738 43.3164 228.316 43.3164C228.887 43.3164 229.344 43.4766 229.688 43.7969C230.039 44.1172 230.215 44.5234 230.215 45.0156C230.215 45.5078 230.039 45.9141 229.688 46.2344C229.344 46.5547 228.887 46.7148 228.316 46.7148C227.738 46.7148 227.277 46.5547 226.934 46.2344C226.59 45.9141 226.418 45.5078 226.418 45.0156ZM238.043 58.5977C238.457 58.5977 238.824 58.5195 239.145 58.3633C239.465 58.1992 239.715 57.9727 239.895 57.6836C240.082 57.3867 240.18 57.0391 240.188 56.6406H243.363C243.355 57.5312 243.117 58.3242 242.648 59.0195C242.18 59.707 241.551 60.25 240.762 60.6484C239.973 61.0391 239.09 61.2344 238.113 61.2344C237.129 61.2344 236.27 61.0703 235.535 60.7422C234.809 60.4141 234.203 59.9609 233.719 59.3828C233.234 58.7969 232.871 58.1172 232.629 57.3438C232.387 56.5625 232.266 55.7266 232.266 54.8359V54.4961C232.266 53.5977 232.387 52.7617 232.629 51.9883C232.871 51.207 233.234 50.5273 233.719 49.9492C234.203 49.3633 234.809 48.9062 235.535 48.5781C236.262 48.25 237.113 48.0859 238.09 48.0859C239.129 48.0859 240.039 48.2852 240.82 48.6836C241.609 49.082 242.227 49.6523 242.672 50.3945C243.125 51.1289 243.355 52 243.363 53.0078H240.188C240.18 52.5859 240.09 52.2031 239.918 51.8594C239.754 51.5156 239.512 51.2422 239.191 51.0391C238.879 50.8281 238.492 50.7227 238.031 50.7227C237.539 50.7227 237.137 50.8281 236.824 51.0391C236.512 51.2422 236.27 51.5234 236.098 51.8828C235.926 52.2344 235.805 52.6367 235.734 53.0898C235.672 53.5352 235.641 54.0039 235.641 54.4961V54.8359C235.641 55.3281 235.672 55.8008 235.734 56.2539C235.797 56.707 235.914 57.1094 236.086 57.4609C236.266 57.8125 236.512 58.0898 236.824 58.293C237.137 58.4961 237.543 58.5977 238.043 58.5977Z" fill="#888888"/>
<path d="M114.117 84.875H122.344V107.164C122.344 109.82 121.789 112.07 120.68 113.914C119.57 115.742 118.016 117.125 116.016 118.062C114.016 119 111.664 119.469 108.961 119.469C106.289 119.469 103.938 119 101.906 118.062C99.8906 117.125 98.3125 115.742 97.1719 113.914C96.0469 112.07 95.4844 109.82 95.4844 107.164V84.875H103.734V107.164C103.734 108.57 103.938 109.719 104.344 110.609C104.75 111.484 105.344 112.125 106.125 112.531C106.906 112.938 107.852 113.141 108.961 113.141C110.086 113.141 111.031 112.938 111.797 112.531C112.562 112.125 113.141 111.484 113.531 110.609C113.922 109.719 114.117 108.57 114.117 107.164V84.875ZM136.266 84.875V119H128.062V84.875H136.266ZM172.523 84.875H180.75V107.164C180.75 109.82 180.195 112.07 179.086 113.914C177.977 115.742 176.422 117.125 174.422 118.062C172.422 119 170.07 119.469 167.367 119.469C164.695 119.469 162.344 119 160.312 118.062C158.297 117.125 156.719 115.742 155.578 113.914C154.453 112.07 153.891 109.82 153.891 107.164V84.875H162.141V107.164C162.141 108.57 162.344 109.719 162.75 110.609C163.156 111.484 163.75 112.125 164.531 112.531C165.312 112.938 166.258 113.141 167.367 113.141C168.492 113.141 169.438 112.938 170.203 112.531C170.969 112.125 171.547 111.484 171.938 110.609C172.328 109.719 172.523 108.57 172.523 107.164V84.875ZM193.078 84.875L198.656 96.2188L204.234 84.875H213.609L204.094 101.797L213.867 119H204.398L198.656 107.445L192.914 119H183.422L193.219 101.797L183.68 84.875H193.078Z" fill="black"/>
<path d="M1134 0H1348C1356.28 0 1363 6.71573 1363 15V148C1363 156.284 1356.28 163 1348 163H1134V0Z" fill="#0066FF"/>
<path d="M1248.5 111.917C1244.51 111.917 1240.55 111.13 1236.86 109.601C1233.17 108.073 1229.82 105.832 1226.99 103.008C1221.29 97.3036 1218.08 89.567 1218.08 81.5C1218.08 73.433 1221.29 65.6964 1226.99 59.9922C1232.7 54.2879 1240.43 51.0833 1248.5 51.0833C1265.23 51.0833 1278.92 63.25 1278.92 78.4583C1278.92 83.2985 1276.99 87.9405 1273.57 91.363C1270.15 94.7856 1265.51 96.7083 1260.67 96.7083H1255.19C1254.28 96.7083 1253.67 97.3167 1253.67 98.2292C1253.67 98.5333 1253.97 98.8375 1253.97 99.1417C1255.19 100.662 1255.8 102.487 1255.8 104.312C1256.1 108.571 1252.76 111.917 1248.5 111.917ZM1248.5 57.1667C1242.05 57.1667 1235.86 59.7303 1231.29 64.2937C1226.73 68.8571 1224.17 75.0464 1224.17 81.5C1224.17 87.9536 1226.73 94.1429 1231.29 98.7063C1235.86 103.27 1242.05 105.833 1248.5 105.833C1249.41 105.833 1250.02 105.225 1250.02 104.312C1250.02 103.704 1249.72 103.4 1249.72 103.096C1248.5 101.575 1247.89 100.054 1247.89 98.2292C1247.89 93.9708 1251.24 90.625 1255.5 90.625H1260.67C1263.89 90.625 1266.99 89.3432 1269.27 87.0615C1271.55 84.7798 1272.83 81.6851 1272.83 78.4583C1272.83 66.5958 1261.88 57.1667 1248.5 57.1667ZM1231.77 75.4167C1234.2 75.4167 1236.33 77.5458 1236.33 79.9792C1236.33 82.4125 1234.2 84.5417 1231.77 84.5417C1229.34 84.5417 1227.21 82.4125 1227.21 79.9792C1227.21 77.5458 1229.34 75.4167 1231.77 75.4167ZM1240.9 63.25C1243.33 63.25 1245.46 65.3792 1245.46 67.8125C1245.46 70.2458 1243.33 72.375 1240.9 72.375C1238.46 72.375 1236.33 70.2458 1236.33 67.8125C1236.33 65.3792 1238.46 63.25 1240.9 63.25ZM1256.1 63.25C1258.54 63.25 1260.67 65.3792 1260.67 67.8125C1260.67 70.2458 1258.54 72.375 1256.1 72.375C1253.67 72.375 1251.54 70.2458 1251.54 67.8125C1251.54 65.3792 1253.67 63.25 1256.1 63.25ZM1265.23 75.4167C1267.66 75.4167 1269.79 77.5458 1269.79 79.9792C1269.79 82.4125 1267.66 84.5417 1265.23 84.5417C1262.8 84.5417 1260.67 82.4125 1260.67 79.9792C1260.67 77.5458 1262.8 75.4167 1265.23 75.4167Z" fill="white"/>
</svg>
